<svg role="img" viewBox="0 0 24 24" xmlns="http://www.w3.org/2000/svg" fill="white"><path d="M8.91 1.705H.003v3.136h8.907V1.705zm15.088 0h-8.91v3.136h8.91V1.705zM.003 6.18h8.907v3.136H.003V6.18zm23.995 0h-8.91v3.136h8.91V6.18zm-15.088 0H11.23v16.115h6.586c.642 0 1.25-.262 1.703-.72.454-.457.712-1.07.712-1.722v-3.743h3.766V6.18H8.91zm2.32 3.136h2.72v-3.136h-2.72v3.136zm0 1.336h2.72v-3.136h-2.72v3.136zm0 1.335h2.72V8.85h-2.72v3.136zm0 1.336h2.72v-3.136h-2.72v3.136zm0 1.336h2.72v-3.136h-2.72v3.136zm0 1.336h2.72v-3.135h-2.72v3.135zm0 1.336h2.72v-3.136h-2.72v3.136zM.003 10.65h8.907v3.135H.003V10.65zm23.995 0h-8.91v3.135h8.91V10.65zm-15.088 0h2.72v-3.135h-2.72V10.65zM.003 15.118h8.907v3.136H.003v-3.136zm23.995 0h-8.91v3.136h8.91v-3.136zm-15.088 0h2.72v-3.136h-2.72v3.136zM.003 19.585h8.907v2.71H.003v-2.71zm23.995 0h-8.91v2.71h8.91v-2.71zm-15.088 0h2.72v-2.71h-2.72v2.71z"/></svg>
